<?xml version="1.0" encoding="UTF-8" standalone="no"?>
<svg
   xmlns:dc="http://purl.org/dc/elements/1.1/"
   xmlns:cc="http://creativecommons.org/ns#"
   xmlns:rdf="http://www.w3.org/1999/02/22-rdf-syntax-ns#"
   xmlns:svg="http://www.w3.org/2000/svg"
   xmlns="http://www.w3.org/2000/svg"
   id="svg4992"
   version="1.1"
   viewBox="0 0 490.96555 106.145"
   height="106.145mm"
   width="490.96555mm">
  <defs
     id="defs4986">
    <clipPath
       clipPathUnits="userSpaceOnUse"
       id="clipPath3737">
      <path
         d="M 74.013,652.233 H 537.986 V 756 H 74.013 Z"
         id="path3735" />
    </clipPath>
  </defs>
  <metadata
     id="metadata4989">
    <rdf:RDF>
      <cc:Work
         rdf:about="">
        <dc:format>image/svg+xml</dc:format>
        <dc:type
           rdf:resource="http://purl.org/dc/dcmitype/StillImage" />
        <dc:title></dc:title>
      </cc:Work>
    </rdf:RDF>
  </metadata>
  <g
     transform="translate(263.60513,9.6832307)"
     id="layer1">
    <g
       transform="matrix(2.9995601,0,0,2.9995601,-320.83689,-99.763845)"
       id="g5754">
      <g
         transform="matrix(0.35277777,0,0,-0.35277777,20.034986,61.382033)"
         id="g3727">
        <path
           id="path3729"
           style="fill:#ec1c24;fill-opacity:1;fill-rule:nonzero;stroke:none"
           d="m 0,0 h 6.871 l 3.751,-7.474 h 0.047 V 0 h 4.076 V -11.148 H 8.09 l -3.983,7.936 h -0.03 v -7.936 H 0 Z" />
      </g>
      <g
         transform="matrix(0.35277777,0,0,-0.35277777,-7.0302661,296.29894)"
         id="g3731">
        <g
           clip-path="url(#clipPath3737)"
           id="g3733">
          <g
             transform="translate(101.9897,663.6674)"
             id="g3739">
            <path
               id="path3741"
               style="fill:#ec1c24;fill-opacity:1;fill-rule:nonzero;stroke:none"
               d="m 0,0 c -1.544,0 -2.671,-1.05 -2.671,-3.336 0,-2.284 1.127,-3.334 2.671,-3.334 1.545,0 2.672,1.05 2.672,3.334 C 2.672,-1.05 1.545,0 0,0 M 6.006,-7.273 C 4.802,-8.43 2.873,-9.202 0,-9.202 c -5.45,0 -7.457,2.532 -7.457,5.866 0,2.162 0.865,3.722 2.147,4.633 1.064,0.756 2.439,1.235 5.31,1.235 5.45,0 7.458,-2.532 7.458,-5.868 0,-1.713 -0.526,-3.056 -1.452,-3.937" />
          </g>
          <g
             transform="translate(117.4236,660.9656)"
             id="g3743">
            <path
               id="path3745"
               style="fill:#ec1c24;fill-opacity:1;fill-rule:nonzero;stroke:none"
               d="m 0,0 h 1.791 c 1.003,0 1.776,0.309 1.776,1.359 0,0.988 -0.71,1.327 -1.853,1.327 H 0 Z m -4.694,4.94 h 7.937 c 3.041,0 4.924,-0.601 4.924,-3.072 0,-1.466 -1.018,-2.394 -2.408,-2.64 v -0.154 c 1.08,-0.032 1.976,-0.418 2.162,-1.545 L 8.524,-6.207 H 3.829 l -0.386,2.485 c -0.216,1.375 -0.416,1.56 -2.022,1.56 H 0 v -4.045 h -4.694 z" />
          </g>
          <g
             transform="translate(132.0248,663.189)"
             id="g3747">
            <path
               id="path3749"
               style="fill:#ec1c24;fill-opacity:1;fill-rule:nonzero;stroke:none"
               d="M 0,0 H -3.659 V 2.717 H 8.353 V 0 H 4.694 V -8.43 H 0 Z" />
          </g>
          <g
             transform="translate(143.7856,665.9062)"
             id="g3751">
            <path
               id="path3753"
               style="fill:#ec1c24;fill-opacity:1;fill-rule:nonzero;stroke:none"
               d="M 0,0 H 4.694 V -4.122 H 9.341 V 0 h 4.694 V -11.148 H 9.341 v 4.309 H 4.694 v -4.309 H 0 Z" />
          </g>
          <g
             transform="translate(183.4168,662.5094)"
             id="g3755">
            <path
               id="path3757"
               style="fill:#ec1c24;fill-opacity:1;fill-rule:nonzero;stroke:none"
               d="m 0,0 c -0.062,0.293 -0.247,0.633 -0.587,0.896 -0.339,0.262 -0.849,0.448 -1.59,0.448 -2.008,0 -3.119,-1.344 -3.119,-3.352 0,-2.146 0.988,-3.689 3.32,-3.689 1.018,0 1.759,0.154 2.177,0.385 v 1.699 h -2.718 v 2.346 h 7.411 v -5.881 c -2.192,-0.509 -5.095,-0.895 -7.55,-0.895 -5.604,0 -7.334,2.439 -7.334,5.727 0,4.184 2.949,6.006 7.86,6.006 4.043,0 6.947,-0.88 7.024,-3.69 z" />
          </g>
          <g
             transform="translate(191.5008,665.9062)"
             id="g3759">
            <path
               id="path3761"
               style="fill:#ec1c24;fill-opacity:1;fill-rule:nonzero;stroke:none"
               d="M 0,0 H 4.54 L 6.022,-6.964 H 6.069 L 8.152,0 h 5.235 l 2.053,-6.964 h 0.046 L 16.953,0 h 4.215 l -2.64,-11.148 h -5.914 l -1.992,6.778 h -0.045 l -2.008,-6.778 h -5.96 z" />
          </g>
          <path
             id="path3763"
             style="fill:#ec1c24;fill-opacity:1;fill-rule:nonzero;stroke:none"
             d="m 215.981,665.907 h 4.694 v -11.148 h -4.694 z" />
          <g
             transform="translate(224.9024,665.9062)"
             id="g3765">
            <path
               id="path3767"
               style="fill:#ec1c24;fill-opacity:1;fill-rule:nonzero;stroke:none"
               d="m 0,0 h 6.871 l 3.751,-7.474 h 0.047 V 0 h 4.076 V -11.148 H 8.09 l -3.983,7.936 h -0.03 v -7.936 H 0 Z" />
          </g>
          <g
             transform="translate(243.7947,665.9062)"
             id="g3769">
            <path
               id="path3771"
               style="fill:#ec1c24;fill-opacity:1;fill-rule:nonzero;stroke:none"
               d="m 0,0 h 6.871 l 3.751,-7.474 h 0.047 V 0 h 4.076 V -11.148 H 8.09 l -3.983,7.936 h -0.03 v -7.936 H 0 Z" />
          </g>
          <g
             transform="translate(262.8564,665.9062)"
             id="g3773">
            <path
               id="path3775"
               style="fill:#ec1c24;fill-opacity:1;fill-rule:nonzero;stroke:none"
               d="M 0,0 H 10.684 V -2.347 H 4.54 V -4.4 h 5.759 V -6.747 H 4.54 V -8.8 h 6.206 v -2.348 H 0 Z" />
          </g>
          <g
             transform="translate(280.1446,663.189)"
             id="g3777">
            <path
               id="path3779"
               style="fill:#ec1c24;fill-opacity:1;fill-rule:nonzero;stroke:none"
               d="M 0,0 H -3.659 V 2.717 H 8.353 V 0 H 4.694 V -8.43 H 0 Z" />
          </g>
          <g
             transform="translate(294.4839,663.189)"
             id="g3781">
            <path
               id="path3783"
               style="fill:#ec1c24;fill-opacity:1;fill-rule:nonzero;stroke:none"
               d="M 0,0 H -3.659 V 2.717 H 8.353 V 0 H 4.694 V -8.43 H 0 Z" />
          </g>
          <g
             transform="translate(370.41,665.9062)"
             id="g3785">
            <path
               id="path3787"
               style="fill:#ec1c24;fill-opacity:1;fill-rule:nonzero;stroke:none"
               d="M 0,0 H 4.693 V -4.122 H 9.341 V 0 h 4.693 V -11.148 H 9.341 v 4.309 H 4.693 v -4.309 H 0 Z" />
          </g>
          <path
             id="path3789"
             style="fill:#ec1c24;fill-opacity:1;fill-rule:nonzero;stroke:none"
             d="m 388.099,665.907 h 4.694 v -11.148 h -4.694 z" />
          <g
             transform="translate(405.8046,662.5094)"
             id="g3791">
            <path
               id="path3793"
               style="fill:#ec1c24;fill-opacity:1;fill-rule:nonzero;stroke:none"
               d="m 0,0 c -0.062,0.293 -0.247,0.633 -0.587,0.896 -0.34,0.262 -0.849,0.448 -1.59,0.448 -2.008,0 -3.119,-1.344 -3.119,-3.352 0,-2.146 0.988,-3.689 3.32,-3.689 1.019,0 1.759,0.154 2.177,0.385 v 1.699 h -2.718 v 2.346 h 7.411 v -5.881 c -2.193,-0.509 -5.095,-0.895 -7.55,-0.895 -5.604,0 -7.334,2.439 -7.334,5.727 0,4.184 2.95,6.006 7.86,6.006 4.043,0 6.948,-0.88 7.024,-3.69 z" />
          </g>
          <g
             transform="translate(414.23,665.9062)"
             id="g3795">
            <path
               id="path3797"
               style="fill:#ec1c24;fill-opacity:1;fill-rule:nonzero;stroke:none"
               d="M 0,0 H 4.693 V -4.122 H 9.341 V 0 h 4.693 V -11.148 H 9.341 v 4.309 H 4.693 v -4.309 H 0 Z" />
          </g>
          <g
             transform="translate(447.0132,658.3403)"
             id="g3799">
            <path
               id="path3801"
               style="fill:#ec1c24;fill-opacity:1;fill-rule:nonzero;stroke:none"
               d="m 0,0 c 0.015,-0.617 0.138,-1.066 0.432,-1.359 0.308,-0.292 0.724,-0.448 1.343,-0.448 0.973,0 2.022,0.233 2.022,1.128 0,0.2 -0.077,0.37 -0.199,0.51 -0.634,0.709 -5.961,1.235 -7.458,2.547 -0.603,0.525 -0.788,1.313 -0.788,1.945 0,2.44 2.238,3.537 6.701,3.537 4.74,0 6.177,-1.314 6.238,-3.614 H 3.69 C 3.658,4.863 3.457,5.25 3.119,5.482 2.794,5.713 2.33,5.791 1.744,5.791 0.756,5.791 0.23,5.419 0.23,4.849 0.23,4.678 0.293,4.463 0.432,4.339 1.156,3.644 6.314,3.149 7.796,1.822 8.23,1.436 8.677,0.834 8.677,-0.246 c 0,-2.209 -1.946,-3.629 -7.026,-3.629 -6.052,0 -6.345,1.807 -6.437,3.875 z" />
          </g>
          <g
             transform="translate(467.6192,661.7683)"
             id="g3803">
            <path
               id="path3805"
               style="fill:#ec1c24;fill-opacity:1;fill-rule:nonzero;stroke:none"
               d="m 0,0 c -0.124,1.374 -0.711,1.992 -1.976,1.992 -1.823,0 -2.439,-1.575 -2.439,-3.428 0,-1.853 0.616,-3.427 2.439,-3.427 1.42,0 2.114,0.664 2.161,2.099 H 4.972 C 4.94,-3.767 4.833,-4.741 3.968,-5.574 2.718,-6.778 0.525,-7.302 -1.868,-7.302 c -5.59,0 -7.426,2.3 -7.426,5.866 0,2.64 1.188,5.867 7.426,5.867 2.794,0 4.741,-0.526 5.713,-1.451 C 4.54,2.316 4.771,1.637 4.786,0 Z" />
          </g>
          <g
             transform="translate(475.5805,665.9062)"
             id="g3807">
            <path
               id="path3809"
               style="fill:#ec1c24;fill-opacity:1;fill-rule:nonzero;stroke:none"
               d="M 0,0 H 4.693 V -4.122 H 9.341 V 0 h 4.693 V -11.148 H 9.341 v 4.309 H 4.693 v -4.309 H 0 Z" />
          </g>
          <g
             transform="translate(500.1858,663.6674)"
             id="g3811">
            <path
               id="path3813"
               style="fill:#ec1c24;fill-opacity:1;fill-rule:nonzero;stroke:none"
               d="m 0,0 c -1.544,0 -2.672,-1.05 -2.672,-3.336 0,-2.284 1.128,-3.334 2.672,-3.334 1.545,0 2.672,1.05 2.672,3.334 C 2.672,-1.05 1.545,0 0,0 M 6.006,-7.273 C 4.802,-8.43 2.873,-9.202 0,-9.202 c -5.45,0 -7.458,2.532 -7.458,5.866 0,2.162 0.865,3.722 2.146,4.633 1.066,0.756 2.441,1.235 5.312,1.235 5.45,0 7.458,-2.532 7.458,-5.868 0,-1.713 -0.526,-3.056 -1.452,-3.937" />
          </g>
          <g
             transform="translate(517.5811,663.6674)"
             id="g3815">
            <path
               id="path3817"
               style="fill:#ec1c24;fill-opacity:1;fill-rule:nonzero;stroke:none"
               d="m 0,0 c -1.543,0 -2.672,-1.05 -2.672,-3.336 0,-2.284 1.129,-3.334 2.672,-3.334 1.545,0 2.672,1.05 2.672,3.334 C 2.672,-1.05 1.545,0 0,0 M 6.006,-7.273 C 4.802,-8.43 2.873,-9.202 0,-9.202 c -5.45,0 -7.457,2.532 -7.457,5.866 0,2.162 0.864,3.722 2.145,4.633 1.066,0.756 2.441,1.235 5.312,1.235 5.45,0 7.458,-2.532 7.458,-5.868 0,-1.713 -0.526,-3.056 -1.452,-3.937" />
          </g>
          <g
             transform="translate(528.1526,665.9062)"
             id="g3819">
            <path
               id="path3821"
               style="fill:#ec1c24;fill-opacity:1;fill-rule:nonzero;stroke:none"
               d="m 0,0 h 4.693 v -8.43 h 5.141 v -2.718 H 0 Z" />
          </g>
          <g
             transform="translate(108.0375,708.5343)"
             id="g3823">
            <path
               id="path3825"
               style="fill:#000000;fill-opacity:1;fill-rule:nonzero;stroke:none"
               d="m 0,0 c -3.109,2.764 -7.37,4.261 -11.456,4.261 -9.73,0 -17.156,-8.119 -17.156,-17.734 0,-9.498 7.368,-17.616 17.041,-17.616 4.26,0 8.347,1.613 11.571,4.491 v -6.391 c -3.339,-1.957 -7.6,-3.051 -11.399,-3.051 -12.378,0 -22.625,9.845 -22.625,22.395 0,12.839 10.304,22.857 23.086,22.857 3.799,0 7.656,-0.921 10.938,-2.936 z" />
          </g>
          <g
             transform="translate(140.3372,699.3228)"
             id="g3827">
            <path
               id="path3829"
               style="fill:#000000;fill-opacity:1;fill-rule:nonzero;stroke:none"
               d="m 0,0 v 17.502 h 5.412 v -43.41 H 0 v 20.841 h -20.668 v -20.841 h -5.412 v 43.41 h 5.412 V 0 Z" />
          </g>
          <g
             transform="translate(169.9305,706.8068)"
             id="g3831">
            <path
               id="path3833"
               style="fill:#000000;fill-opacity:1;fill-rule:nonzero;stroke:none"
               d="m 0,0 -7.715,-17.559 h 15.43 z m -9.959,-22.511 -4.952,-10.88 h -5.815 L 0,11.86 20.726,-33.391 h -5.815 l -4.952,10.88 z" />
          </g>
          <g
             transform="translate(199.9274,696.2711)"
             id="g3835">
            <path
               id="path3837"
               style="fill:#000000;fill-opacity:1;fill-rule:nonzero;stroke:none"
               d="m 0,0 h 1.727 c 5.526,0 11.514,1.036 11.514,7.945 0,6.793 -6.448,7.772 -11.802,7.772 H 0 Z M 21.589,-22.856 H 15.026 L 2.245,-4.491 H 0 V -22.856 H -5.412 V 20.553 H 1.15 c 3.858,0 8.003,-0.058 11.458,-2.015 3.627,-2.129 5.7,-6.217 5.7,-10.362 0,-6.218 -4.146,-11.4 -10.421,-12.149 z" />
          </g>
          <g
             transform="translate(265.5606,695.2925)"
             id="g3839">
            <path
               id="path3841"
               style="fill:#000000;fill-opacity:1;fill-rule:nonzero;stroke:none"
               d="m 0,0 v -1.727 c 0,-11.917 -8.406,-21.072 -20.553,-21.072 -12.147,0 -21.935,10.478 -21.935,22.511 0,12.493 10.018,22.741 22.511,22.741 6.735,0 13.413,-3.052 17.674,-8.406 l -3.8,-3.627 c -3.109,4.26 -8.347,7.082 -13.644,7.082 -9.729,0 -17.329,-7.887 -17.329,-17.617 0,-9.097 7.484,-17.732 16.868,-17.732 6.735,0 13.99,5.815 14.22,12.896 H -17.214 V 0 Z" />
          </g>
          <g
             transform="translate(271.1478,716.8245)"
             id="g3843">
            <path
               id="path3845"
               style="fill:#000000;fill-opacity:1;fill-rule:nonzero;stroke:none"
               d="M 0,0 H 23.317 V -4.951 H 5.411 V -17.099 H 22.798 V -22.05 H 5.411 v -16.409 h 17.906 v -4.95 H 0 Z" />
          </g>
          <g
             transform="translate(380.0006,708.7711)"
             id="g3847">
            <path
               id="path3849"
               style="fill:#000000;fill-opacity:1;fill-rule:nonzero;stroke:none"
               d="m 0,0 h 0.18 c 2.449,4.623 6.981,7.433 12.42,7.433 10.789,0 13.78,-6.708 13.78,-17.495 v -25.294 h -4.079 v 25.294 c 0,7.524 -0.906,13.688 -10.063,13.688 C 1.721,3.626 0,-6.164 0,-14.687 V -35.356 H -4.081 V 6.528 H 0 Z" />
          </g>
          <g
             transform="translate(380.0006,708.7711)"
             id="g3851">
            <path
               id="path3853"
               style="fill:none;stroke:#000000;stroke-width:0.61299998;stroke-linecap:butt;stroke-linejoin:miter;stroke-miterlimit:10;stroke-dasharray:none;stroke-opacity:1"
               d="m 0,0 h 0.18 c 2.449,4.623 6.981,7.433 12.42,7.433 10.789,0 13.78,-6.708 13.78,-17.495 v -25.294 h -4.079 v 25.294 c 0,7.524 -0.906,13.688 -10.063,13.688 C 1.721,3.626 0,-6.164 0,-14.687 V -35.356 H -4.081 V 6.528 H 0 Z" />
          </g>
          <g
             transform="translate(415.2266,694.2661)"
             id="g3855">
            <path
               id="path3857"
               style="fill:#000000;fill-opacity:1;fill-rule:nonzero;stroke:none"
               d="m 0,0 c 0,-9.519 7.525,-17.95 17.406,-17.95 10.243,0 18.222,7.796 18.222,17.95 0,10.335 -7.887,18.131 -18.222,18.131 C 7.433,18.131 0,9.701 0,0 m 39.707,0.091 c 0,-12.419 -9.701,-21.848 -22.029,-21.848 -12.058,0 -21.757,9.882 -21.757,21.757 0,12.058 9.61,21.939 21.757,21.939 12.328,0 22.029,-9.428 22.029,-21.848" />
          </g>
          <g
             transform="translate(415.2266,694.2661)"
             id="g3859">
            <path
               id="path3861"
               style="fill:none;stroke:#000000;stroke-width:0.61299998;stroke-linecap:butt;stroke-linejoin:miter;stroke-miterlimit:10;stroke-dasharray:none;stroke-opacity:1"
               d="m 0,0 c 0,-9.519 7.525,-17.95 17.406,-17.95 10.243,0 18.222,7.796 18.222,17.95 0,10.335 -7.887,18.131 -18.222,18.131 C 7.433,18.131 0,9.701 0,0 Z m 39.707,0.091 c 0,-12.419 -9.701,-21.848 -22.029,-21.848 -12.058,0 -21.757,9.882 -21.757,21.757 0,12.058 9.61,21.939 21.757,21.939 12.328,0 22.029,-9.428 22.029,-21.848 z" />
          </g>
          <g
             transform="translate(475.821,711.5178)"
             id="g3863">
            <path
               id="path3865"
               style="fill:#000000;fill-opacity:1;fill-rule:nonzero;stroke:none"
               d="m 0,0 c -9.157,0 -11.999,-9.109 -11.999,-15.273 v -22.829 h -4.079 V 3.78 h 4.079 v -6.318 h 0.183 c 1.631,3.807 7.454,6.345 11.897,6.345 z" />
          </g>
          <g
             transform="translate(475.821,711.5178)"
             id="g3867">
            <path
               id="path3869"
               style="fill:none;stroke:#000000;stroke-width:0.61299998;stroke-linecap:butt;stroke-linejoin:miter;stroke-miterlimit:10;stroke-dasharray:none;stroke-opacity:1"
               d="m 0,0 c -9.157,0 -11.999,-9.109 -11.999,-15.273 v -22.829 h -4.079 V 3.78 h 4.079 v -6.318 h 0.183 c 1.631,3.807 7.454,6.345 11.897,6.345 z" />
          </g>
          <g
             transform="translate(491.2878,673.4153)"
             id="g3871">
            <path
               id="path3873"
               style="fill:#000000;fill-opacity:1;fill-rule:nonzero;stroke:none"
               d="m 0,0 h -4.079 v 38.075 h -7.331 v 3.808 h 7.331 V 54.105 H 0 V 41.883 H 7.343 V 38.075 H 0 Z" />
          </g>
          <g
             transform="translate(491.2878,673.4153)"
             id="g3875">
            <path
               id="path3877"
               style="fill:none;stroke:#000000;stroke-width:0.61299998;stroke-linecap:butt;stroke-linejoin:miter;stroke-miterlimit:10;stroke-dasharray:none;stroke-opacity:1"
               d="m 0,0 h -4.079 v 38.075 h -7.331 v 3.808 h 7.331 V 54.105 H 0 V 41.883 H 7.343 V 38.075 H 0 Z" />
          </g>
          <g
             transform="translate(507.1016,727.5193)"
             id="g3879">
            <path
               id="path3881"
               style="fill:#000000;fill-opacity:1;fill-rule:nonzero;stroke:none"
               d="m 0,0 v -18.749 h 0.18 c 2.449,4.625 6.981,7.435 12.42,7.435 10.789,0 13.78,-6.708 13.78,-17.497 v -25.294 h -4.079 v 25.294 c 0,7.525 -0.906,13.69 -10.063,13.69 C 1.721,-15.121 0,-24.913 0,-33.434 V -54.105 H -4.081 V 0 Z" />
          </g>
          <g
             transform="translate(507.1016,727.5193)"
             id="g3883">
            <path
               id="path3885"
               style="fill:none;stroke:#000000;stroke-width:0.61299998;stroke-linecap:butt;stroke-linejoin:miter;stroke-miterlimit:10;stroke-dasharray:none;stroke-opacity:1"
               d="m 0,0 v -18.749 h 0.18 c 2.449,4.625 6.981,7.435 12.42,7.435 10.789,0 13.78,-6.708 13.78,-17.497 v -25.294 h -4.079 v 25.294 c 0,7.525 -0.906,13.69 -10.063,13.69 C 1.721,-15.121 0,-24.913 0,-33.434 V -54.105 H -4.081 V 0 Z" />
          </g>
          <g
             transform="translate(347.2833,679.0295)"
             id="g3887">
            <path
               id="path3889"
               style="fill:#ec1c24;fill-opacity:1;fill-rule:nonzero;stroke:none"
               d="m 0,0 c 0,11.794 5.793,16.639 10.702,21.701 4.748,5.469 7.623,12.611 7.623,20.423 0,17.216 -13.957,31.171 -31.172,31.171 -17.217,0 -31.172,-13.955 -31.172,-31.171 0,-7.812 2.874,-14.954 7.622,-20.423 4.91,-5.062 10.701,-9.907 10.701,-21.701 z" />
          </g>
          <g
             transform="translate(347.2833,679.0295)"
             id="g3891">
            <path
               id="path3893"
               style="fill:none;stroke:#ec1c24;stroke-width:4.9000001;stroke-linecap:round;stroke-linejoin:round;stroke-miterlimit:10;stroke-dasharray:none;stroke-opacity:1"
               d="m 0,0 c 0,11.794 5.793,16.639 10.702,21.701 4.748,5.469 7.623,12.611 7.623,20.423 0,17.216 -13.957,31.171 -31.172,31.171 -17.217,0 -31.172,-13.955 -31.172,-31.171 0,-7.812 2.874,-14.954 7.622,-20.423 4.91,-5.062 10.701,-9.907 10.701,-21.701 z" />
          </g>
          <g
             transform="translate(320.8082,671.731)"
             id="g3895">
            <path
               id="path3897"
               style="fill:none;stroke:#ec1c24;stroke-width:4.9000001;stroke-linecap:round;stroke-linejoin:miter;stroke-miterlimit:10;stroke-dasharray:none;stroke-opacity:1"
               d="M 0,0 H 27.256" />
          </g>
          <g
             transform="translate(320.8082,664.4318)"
             id="g3899">
            <path
               id="path3901"
               style="fill:none;stroke:#ec1c24;stroke-width:4.9000001;stroke-linecap:round;stroke-linejoin:miter;stroke-miterlimit:10;stroke-dasharray:none;stroke-opacity:1"
               d="M 0,0 H 27.256" />
          </g>
          <g
             transform="translate(320.8082,657.1327)"
             id="g3903">
            <path
               id="path3905"
               style="fill:none;stroke:#ec1c24;stroke-width:4.9000001;stroke-linecap:round;stroke-linejoin:miter;stroke-miterlimit:10;stroke-dasharray:none;stroke-opacity:1"
               d="M 0,0 H 27.256" />
          </g>
          <g
             transform="translate(336.3911,741.8622)"
             id="g3907">
            <path
               id="path3909"
               style="fill:#ffffff;fill-opacity:1;fill-rule:nonzero;stroke:none"
               d="m 0,0 -11.172,-28.438 c -0.194,-0.494 0.171,-1.027 0.701,-1.027 h 8.244 c 0.451,0 0.801,-0.394 0.746,-0.843 L -4.35,-53.975 c -0.103,-0.85 1.071,-1.183 1.431,-0.405 l 13.46,29.167 c 0.232,0.499 -0.133,1.068 -0.682,1.068 H 0.432 c -0.439,0 -0.785,0.373 -0.751,0.81 L 1.452,-0.332 C 1.517,0.529 0.317,0.804 0,0" />
          </g>
        </g>
      </g>
    </g>
  </g>
</svg>
